<svg version="1.1" id="_x31_0" xmlns="http://www.w3.org/2000/svg" x="0" y="0" viewBox="0 0 512 512" style="width:256px;height:256px;opacity:1" xml:space="preserve"><style>.st0{fill:#374149}</style><path class="st0" d="M59.246 123.348c3.867-1.746 7.203-3.566 11.375-5.766 2.199-1.137 4.472-2.352 6.824-3.414 0 0 0-.074.078-.074 17.29-17.367 36.63-33.371 52.633-38.148 13.727-4.02 24.497-3.336 29.727 1.973 2.582 2.578 9.027 12.133 4.402 38.222 8.839 2.996 20.496 6.641 34.766 10.77.476.141.922.281 1.402.422 0-.004 0-.008.003-.012l.153.043c.519-2.55.758-4.809 1.137-7.218.054-.332.106-.661.156-.989.726-4.793 1.207-9.316 1.434-13.562 0-.031.004-.066.004-.098 1.453-27.973-7.074-44.633-16.379-54.121-15.55-15.926-39.59-20.023-67.574-11.754-43.078 12.738-90.63 70.227-107.012 91.383l12.211-.527c17.745-.763 23.89-1.974 34.66-7.13zM485.238 102.258c-28.894-19.035-69.168-9.706-96.164 8.039-14.359 9.402-27.262 20.902-38.418 32.199-.55.551-1.102 1.066-1.652 1.625-2.652 2.727-5.078 5.348-7.496 8.004-1.786 1.926-3.57 3.711-5.356 5.719l.114.015c-.039.047-.09.098-.129.145.836.074 1.742.226 2.652.379l30.794 4.55c3.64.527 7.054 1.969 9.859 4.168 9.023-8.871 19.34-17.82 30.41-25.102a80.093 80.093 0 0 1 14.367-7.418c.294-.118.586-.242.883-.352a74.87 74.87 0 0 1 6.934-2.278c.297-.082.594-.144.89-.222 12.359-3.211 24.055-2.699 31.379 2.156 11.379 7.508 10.847 25.707 8.344 39.664-7.055 39.512-59.078 97.074-100.641 136.965 4.019 14.41 8.875 25.333 10.238 28.29v.152l4.629 9.481c46.714-43.078 113.378-113.684 123.086-168.215 8.569-48.007-11.833-69.468-24.723-77.964z" style="fill:#333"/><path class="st0" d="m364.015 352.59-5.458-11.125c-.07-.145-4.234-8.898-8.324-21.965-3.305-10.121-6.535-22.894-7.754-36.176-3.23-35.168 5.312-58.71 8.038-65.098l11.485-27.062c1.293-3.156-.215-6.676-3.23-7.82-.43-.145-.859-.29-1.293-.36l-29.141-4.308c-3.73-.574-7.39-1.149-11.051-1.723-50.605-8.109-91.445-17.941-121.086-26.269-13.996-3.946-25.41-7.535-34.238-10.481-13.637-4.594-20.886-7.535-21.102-7.606l-1.363-.574-1.438-.434c-6.172-1.863-12.058-2.797-17.871-2.797-14.859 0-26.129 5.883-37.038 11.555-3.516 1.867-7.106 3.734-11.266 5.671-4.738 2.223-8.758 3.805-12.993 5.024h-.07c-6.965 1.867-14.214 2.586-25.195 3.015l-6.89.286-13.851.648-5.672 19.954c-.934 3.445-9.402 35.168-6.676 91.152 3.59 73.5 35.961 164.726 115.848 200.114 15.503 6.82 32.226 10.335 49.882 10.335 54.766 0 104.218-33.878 122.953-48.449 26.485-20.527 61.153-51.32 62.59-52.61l9.258-8.258c3.66-3.226 5.023-8.11 3.66-12.703-.14-.644-.429-1.292-.714-1.936zm-69.949-152.242c-.504 1.605-2.793 8.847-5.203 19.742l-14.066-3.086c2.942-13.133 5.598-21.246 5.742-21.531l4.012 1.332 9.515 3.543zm-12.094 97.262c.145 2.011.289 3.949.434 5.886l-14.286 1.219c-.214-2.082-.359-4.165-.503-6.242a269.746 269.746 0 0 1-.43-15.149v-.714h14.356v.714c-.001 4.668.143 9.477.429 14.286zm.504-35.961L268.12 260.5c.574-7.176 1.508-14.496 2.657-21.89l14.141 2.226c-1.079 7.031-1.938 14.066-2.442 20.813zm-11.844 64.957 14.211-2.153a338.694 338.694 0 0 0 3.878 20.672l-14 3.086a362.133 362.133 0 0 1-4.089-21.605zm9.762 42.996 13.711-4.234c2.078 6.89 4.375 13.566 6.89 19.809l-13.351 5.312c-2.657-6.598-5.094-13.629-7.246-20.874 0-.005-.004-.009-.004-.013zm-62.516-122.594a7.176 7.176 0 0 1-7.18 7.175H23.437v-14.351h187.262a7.177 7.177 0 0 1 7.179 7.176zM34.562 308.015h172.262a7.177 7.177 0 1 1 0 14.356H34.562v-14.356z" style="fill:#333"/></svg>